<svg width="520" height="276" viewBox="0 0 520 276" xmlns="http://www.w3.org/2000/svg" role="img" aria-label="Role mix">
<style>
    text { font-family: "Inter", "Segoe UI", sans-serif; font-size: 12px; fill: #111827; }
    .title { font-size: 14px; font-weight: 600; }
  </style>
<rect width="520" height="276" fill="#ffffff" rx="8" ry="8" stroke="#e5e7eb" />
<text class="title" x="24" y="36">Role mix</text>
<text x="24" y="74">Engineering &amp; Infra</text>
<rect x="244" y="60" width="220" height="20" fill="#2563eb" rx="4" />
<text x="472" y="74">7253</text>
<text x="24" y="106">Other</text>
<rect x="244" y="92" width="194.55122018475114" height="20" fill="#2563eb" rx="4" />
<text x="446.5512201847512" y="106">6414</text>
<text x="24" y="138">Marketing &amp; Growth</text>
<rect x="244" y="124" width="97.45760375017234" height="20" fill="#2563eb" rx="4" />
<text x="349.4576037501723" y="138">3213</text>
<text x="24" y="170">Product</text>
<rect x="244" y="156" width="64.36509030745898" height="20" fill="#2563eb" rx="4" />
<text x="316.365090307459" y="170">2122</text>
<text x="24" y="202">Data &amp; AI</text>
<rect x="244" y="188" width="63.12146697918103" height="20" fill="#2563eb" rx="4" />
<text x="315.12146697918104" y="202">2081</text>
<text x="24" y="234">Sales &amp; Success</text>
<rect x="244" y="220" width="54.02178408934235" height="20" fill="#2563eb" rx="4" />
<text x="306.02178408934236" y="234">1781</text>
</svg>
