<svg width="520" height="276" viewBox="0 0 520 276" xmlns="http://www.w3.org/2000/svg" role="img" aria-label="Role mix">
<style>
    text { font-family: "Inter", "Segoe UI", sans-serif; font-size: 12px; fill: #111827; }
    .title { font-size: 14px; font-weight: 600; }
  </style>
<rect width="520" height="276" fill="#ffffff" rx="8" ry="8" stroke="#e5e7eb" />
<text class="title" x="24" y="36">Role mix</text>
<text x="24" y="74">Engineering &amp; Infra</text>
<rect x="244" y="60" width="220" height="20" fill="#2563eb" rx="4" />
<text x="472" y="74">7331</text>
<text x="24" y="106">Other</text>
<rect x="244" y="92" width="195.78229436638932" height="20" fill="#2563eb" rx="4" />
<text x="447.78229436638935" y="106">6524</text>
<text x="24" y="138">Marketing &amp; Growth</text>
<rect x="244" y="124" width="97.71108989223843" height="20" fill="#2563eb" rx="4" />
<text x="349.7110898922384" y="138">3256</text>
<text x="24" y="170">Product</text>
<rect x="244" y="156" width="64.6405674532806" height="20" fill="#2563eb" rx="4" />
<text x="316.6405674532806" y="170">2154</text>
<text x="24" y="202">Data &amp; AI</text>
<rect x="244" y="188" width="63.74028099849952" height="20" fill="#2563eb" rx="4" />
<text x="315.74028099849954" y="202">2124</text>
<text x="24" y="234">Sales &amp; Success</text>
<rect x="244" y="220" width="54.197244577820214" height="20" fill="#2563eb" rx="4" />
<text x="306.19724457782024" y="234">1806</text>
</svg>
