<svg width="520" height="276" viewBox="0 0 520 276" xmlns="http://www.w3.org/2000/svg" role="img" aria-label="Role mix">
<style>
    text { font-family: "Inter", "Segoe UI", sans-serif; font-size: 12px; fill: #111827; }
    .title { font-size: 14px; font-weight: 600; }
  </style>
<rect width="520" height="276" fill="#ffffff" rx="8" ry="8" stroke="#e5e7eb" />
<text class="title" x="24" y="36">Role mix</text>
<text x="24" y="74">Engineering &amp; Infra</text>
<rect x="244" y="60" width="220" height="20" fill="#2563eb" rx="4" />
<text x="472" y="74">7210</text>
<text x="24" y="106">Other</text>
<rect x="244" y="92" width="193.11789181692095" height="20" fill="#2563eb" rx="4" />
<text x="445.117891816921" y="106">6329</text>
<text x="24" y="138">Marketing &amp; Growth</text>
<rect x="244" y="124" width="97.0624133148405" height="20" fill="#2563eb" rx="4" />
<text x="349.0624133148405" y="138">3181</text>
<text x="24" y="170">Product</text>
<rect x="244" y="156" width="63.37586685159501" height="20" fill="#2563eb" rx="4" />
<text x="315.375866851595" y="170">2077</text>
<text x="24" y="202">Data &amp; AI</text>
<rect x="244" y="188" width="62.857142857142854" height="20" fill="#2563eb" rx="4" />
<text x="314.85714285714283" y="202">2060</text>
<text x="24" y="234">Sales &amp; Success</text>
<rect x="244" y="220" width="53.79472954230236" height="20" fill="#2563eb" rx="4" />
<text x="305.7947295423024" y="234">1763</text>
</svg>
