<svg width="520" height="276" viewBox="0 0 520 276" xmlns="http://www.w3.org/2000/svg" role="img" aria-label="Role mix">
<style>
    text { font-family: "Inter", "Segoe UI", sans-serif; font-size: 12px; fill: #111827; }
    .title { font-size: 14px; font-weight: 600; }
  </style>
<rect width="520" height="276" fill="#ffffff" rx="8" ry="8" stroke="#e5e7eb" />
<text class="title" x="24" y="36">Role mix</text>
<text x="24" y="74">Engineering &amp; Infra</text>
<rect x="244" y="60" width="220" height="20" fill="#2563eb" rx="4" />
<text x="472" y="74">7685</text>
<text x="24" y="106">Other</text>
<rect x="244" y="92" width="197.4131424853611" height="20" fill="#2563eb" rx="4" />
<text x="449.4131424853611" y="106">6896</text>
<text x="24" y="138">Marketing &amp; Growth</text>
<rect x="244" y="124" width="98.39167208848407" height="20" fill="#2563eb" rx="4" />
<text x="350.3916720884841" y="138">3437</text>
<text x="24" y="170">Product</text>
<rect x="244" y="156" width="65.355888093689" height="20" fill="#2563eb" rx="4" />
<text x="317.35588809368903" y="170">2283</text>
<text x="24" y="202">Data &amp; AI</text>
<rect x="244" y="188" width="64.4398178269356" height="20" fill="#2563eb" rx="4" />
<text x="316.4398178269356" y="202">2251</text>
<text x="24" y="234">Sales &amp; Success</text>
<rect x="244" y="220" width="54.59206245933637" height="20" fill="#2563eb" rx="4" />
<text x="306.5920624593364" y="234">1907</text>
</svg>
