<svg width="520" height="276" viewBox="0 0 520 276" xmlns="http://www.w3.org/2000/svg" role="img" aria-label="Role mix">
<style>
    text { font-family: "Inter", "Segoe UI", sans-serif; font-size: 12px; fill: #111827; }
    .title { font-size: 14px; font-weight: 600; }
  </style>
<rect width="520" height="276" fill="#ffffff" rx="8" ry="8" stroke="#e5e7eb" />
<text class="title" x="24" y="36">Role mix</text>
<text x="24" y="74">Engineering &amp; Infra</text>
<rect x="244" y="60" width="220" height="20" fill="#2563eb" rx="4" />
<text x="472" y="74">7254</text>
<text x="24" y="106">Other</text>
<rect x="244" y="92" width="194.55472842569617" height="20" fill="#2563eb" rx="4" />
<text x="446.55472842569617" y="106">6415</text>
<text x="24" y="138">Marketing &amp; Growth</text>
<rect x="244" y="124" width="97.44416873449131" height="20" fill="#2563eb" rx="4" />
<text x="349.4441687344913" y="138">3213</text>
<text x="24" y="170">Product</text>
<rect x="244" y="156" width="64.35621725944306" height="20" fill="#2563eb" rx="4" />
<text x="316.35621725944304" y="170">2122</text>
<text x="24" y="202">Data &amp; AI</text>
<rect x="244" y="188" width="63.112765370829884" height="20" fill="#2563eb" rx="4" />
<text x="315.1127653708299" y="202">2081</text>
<text x="24" y="234">Sales &amp; Success</text>
<rect x="244" y="220" width="54.044665012406945" height="20" fill="#2563eb" rx="4" />
<text x="306.04466501240694" y="234">1782</text>
</svg>
