<svg width="520" height="276" viewBox="0 0 520 276" xmlns="http://www.w3.org/2000/svg" role="img" aria-label="Role mix">
<style>
    text { font-family: "Inter", "Segoe UI", sans-serif; font-size: 12px; fill: #111827; }
    .title { font-size: 14px; font-weight: 600; }
  </style>
<rect width="520" height="276" fill="#ffffff" rx="8" ry="8" stroke="#e5e7eb" />
<text class="title" x="24" y="36">Role mix</text>
<text x="24" y="74">Engineering &amp; Infra</text>
<rect x="244" y="60" width="220" height="20" fill="#2563eb" rx="4" />
<text x="472" y="74">7211</text>
<text x="24" y="106">Other</text>
<rect x="244" y="92" width="193.3656913049508" height="20" fill="#2563eb" rx="4" />
<text x="445.3656913049508" y="106">6338</text>
<text x="24" y="138">Marketing &amp; Growth</text>
<rect x="244" y="124" width="97.17098876716129" height="20" fill="#2563eb" rx="4" />
<text x="349.1709887671613" y="138">3185</text>
<text x="24" y="170">Product</text>
<rect x="244" y="156" width="63.73318541117737" height="20" fill="#2563eb" rx="4" />
<text x="315.7331854111774" y="170">2089</text>
<text x="24" y="202">Data &amp; AI</text>
<rect x="244" y="188" width="62.970461794480656" height="20" fill="#2563eb" rx="4" />
<text x="314.9704617944807" y="202">2064</text>
<text x="24" y="234">Sales &amp; Success</text>
<rect x="244" y="220" width="53.8177783941201" height="20" fill="#2563eb" rx="4" />
<text x="305.81777839412007" y="234">1764</text>
</svg>
