<svg width="520" height="276" viewBox="0 0 520 276" xmlns="http://www.w3.org/2000/svg" role="img" aria-label="Role mix">
<style>
    text { font-family: "Inter", "Segoe UI", sans-serif; font-size: 12px; fill: #111827; }
    .title { font-size: 14px; font-weight: 600; }
  </style>
<rect width="520" height="276" fill="#ffffff" rx="8" ry="8" stroke="#e5e7eb" />
<text class="title" x="24" y="36">Role mix</text>
<text x="24" y="74">Engineering &amp; Infra</text>
<rect x="244" y="60" width="220" height="20" fill="#2563eb" rx="4" />
<text x="472" y="74">7193</text>
<text x="24" y="106">Other</text>
<rect x="244" y="92" width="192.53440845266232" height="20" fill="#2563eb" rx="4" />
<text x="444.5344084526623" y="106">6295</text>
<text x="24" y="138">Marketing &amp; Growth</text>
<rect x="244" y="124" width="96.71069094953427" height="20" fill="#2563eb" rx="4" />
<text x="348.7106909495343" y="138">3162</text>
<text x="24" y="170">Product</text>
<rect x="244" y="156" width="63.005699986097596" height="20" fill="#2563eb" rx="4" />
<text x="315.0056999860976" y="170">2060</text>
<text x="24" y="202">Data &amp; AI</text>
<rect x="244" y="188" width="62.7610176560545" height="20" fill="#2563eb" rx="4" />
<text x="314.7610176560545" y="202">2052</text>
<text x="24" y="234">Sales &amp; Success</text>
<rect x="244" y="220" width="53.463089114416796" height="20" fill="#2563eb" rx="4" />
<text x="305.4630891144168" y="234">1748</text>
</svg>
