<svg width="520" height="276" viewBox="0 0 520 276" xmlns="http://www.w3.org/2000/svg" role="img" aria-label="Role mix">
<style>
    text { font-family: "Inter", "Segoe UI", sans-serif; font-size: 12px; fill: #111827; }
    .title { font-size: 14px; font-weight: 600; }
  </style>
<rect width="520" height="276" fill="#ffffff" rx="8" ry="8" stroke="#e5e7eb" />
<text class="title" x="24" y="36">Role mix</text>
<text x="24" y="74">Engineering &amp; Infra</text>
<rect x="244" y="60" width="220" height="20" fill="#2563eb" rx="4" />
<text x="472" y="74">7427</text>
<text x="24" y="106">Other</text>
<rect x="244" y="92" width="196.53965261882323" height="20" fill="#2563eb" rx="4" />
<text x="448.5396526188232" y="106">6635</text>
<text x="24" y="138">Marketing &amp; Growth</text>
<rect x="244" y="124" width="97.75144742156995" height="20" fill="#2563eb" rx="4" />
<text x="349.75144742156994" y="138">3300</text>
<text x="24" y="170">Product</text>
<rect x="244" y="156" width="64.93065840850949" height="20" fill="#2563eb" rx="4" />
<text x="316.9306584085095" y="170">2192</text>
<text x="24" y="202">Data &amp; AI</text>
<rect x="244" y="188" width="64.13087383869664" height="20" fill="#2563eb" rx="4" />
<text x="316.13087383869663" y="202">2165</text>
<text x="24" y="234">Sales &amp; Success</text>
<rect x="244" y="220" width="54.177999192136795" height="20" fill="#2563eb" rx="4" />
<text x="306.1779991921368" y="234">1829</text>
</svg>
