<svg width="520" height="276" viewBox="0 0 520 276" xmlns="http://www.w3.org/2000/svg" role="img" aria-label="Role mix">
<style>
    text { font-family: "Inter", "Segoe UI", sans-serif; font-size: 12px; fill: #111827; }
    .title { font-size: 14px; font-weight: 600; }
  </style>
<rect width="520" height="276" fill="#ffffff" rx="8" ry="8" stroke="#e5e7eb" />
<text class="title" x="24" y="36">Role mix</text>
<text x="24" y="74">Engineering &amp; Infra</text>
<rect x="244" y="60" width="220" height="20" fill="#2563eb" rx="4" />
<text x="472" y="74">7424</text>
<text x="24" y="106">Other</text>
<rect x="244" y="92" width="196.44127155172413" height="20" fill="#2563eb" rx="4" />
<text x="448.4412715517241" y="106">6629</text>
<text x="24" y="138">Marketing &amp; Growth</text>
<rect x="244" y="124" width="97.76131465517241" height="20" fill="#2563eb" rx="4" />
<text x="349.76131465517244" y="138">3299</text>
<text x="24" y="170">Product</text>
<rect x="244" y="156" width="64.89762931034483" height="20" fill="#2563eb" rx="4" />
<text x="316.8976293103448" y="170">2190</text>
<text x="24" y="202">Data &amp; AI</text>
<rect x="244" y="188" width="64.06788793103448" height="20" fill="#2563eb" rx="4" />
<text x="316.0678879310345" y="202">2162</text>
<text x="24" y="234">Sales &amp; Success</text>
<rect x="244" y="220" width="54.19989224137931" height="20" fill="#2563eb" rx="4" />
<text x="306.1998922413793" y="234">1829</text>
</svg>
