<svg width="520" height="276" viewBox="0 0 520 276" xmlns="http://www.w3.org/2000/svg" role="img" aria-label="Role mix">
<style>
    text { font-family: "Inter", "Segoe UI", sans-serif; font-size: 12px; fill: #111827; }
    .title { font-size: 14px; font-weight: 600; }
  </style>
<rect width="520" height="276" fill="#ffffff" rx="8" ry="8" stroke="#e5e7eb" />
<text class="title" x="24" y="36">Role mix</text>
<text x="24" y="74">Engineering &amp; Infra</text>
<rect x="244" y="60" width="220" height="20" fill="#2563eb" rx="4" />
<text x="472" y="74">7599</text>
<text x="24" y="106">Other</text>
<rect x="244" y="92" width="197.30227661534414" height="20" fill="#2563eb" rx="4" />
<text x="449.3022766153441" y="106">6815</text>
<text x="24" y="138">Marketing &amp; Growth</text>
<rect x="244" y="124" width="98.14449269640743" height="20" fill="#2563eb" rx="4" />
<text x="350.14449269640744" y="138">3390</text>
<text x="24" y="170">Product</text>
<rect x="244" y="156" width="64.96644295302013" height="20" fill="#2563eb" rx="4" />
<text x="316.96644295302013" y="170">2244</text>
<text x="24" y="202">Data &amp; AI</text>
<rect x="244" y="188" width="64.76378470851428" height="20" fill="#2563eb" rx="4" />
<text x="316.76378470851427" y="202">2237</text>
<text x="24" y="234">Sales &amp; Success</text>
<rect x="244" y="220" width="54.254507171996316" height="20" fill="#2563eb" rx="4" />
<text x="306.2545071719963" y="234">1874</text>
</svg>
