<svg width="520" height="276" viewBox="0 0 520 276" xmlns="http://www.w3.org/2000/svg" role="img" aria-label="Role mix">
<style>
    text { font-family: "Inter", "Segoe UI", sans-serif; font-size: 12px; fill: #111827; }
    .title { font-size: 14px; font-weight: 600; }
  </style>
<rect width="520" height="276" fill="#ffffff" rx="8" ry="8" stroke="#e5e7eb" />
<text class="title" x="24" y="36">Role mix</text>
<text x="24" y="74">Engineering &amp; Infra</text>
<rect x="244" y="60" width="220" height="20" fill="#2563eb" rx="4" />
<text x="472" y="74">7216</text>
<text x="24" y="106">Other</text>
<rect x="244" y="92" width="193.3841463414634" height="20" fill="#2563eb" rx="4" />
<text x="445.3841463414634" y="106">6343</text>
<text x="24" y="138">Marketing &amp; Growth</text>
<rect x="244" y="124" width="97.16463414634146" height="20" fill="#2563eb" rx="4" />
<text x="349.1646341463414" y="138">3187</text>
<text x="24" y="170">Product</text>
<rect x="244" y="156" width="63.71951219512194" height="20" fill="#2563eb" rx="4" />
<text x="315.7195121951219" y="170">2090</text>
<text x="24" y="202">Data &amp; AI</text>
<rect x="244" y="188" width="63.01829268292683" height="20" fill="#2563eb" rx="4" />
<text x="315.0182926829268" y="202">2067</text>
<text x="24" y="234">Sales &amp; Success</text>
<rect x="244" y="220" width="53.8719512195122" height="20" fill="#2563eb" rx="4" />
<text x="305.8719512195122" y="234">1767</text>
</svg>
