<svg width="520" height="276" viewBox="0 0 520 276" xmlns="http://www.w3.org/2000/svg" role="img" aria-label="Role mix">
<style>
    text { font-family: "Inter", "Segoe UI", sans-serif; font-size: 12px; fill: #111827; }
    .title { font-size: 14px; font-weight: 600; }
  </style>
<rect width="520" height="276" fill="#ffffff" rx="8" ry="8" stroke="#e5e7eb" />
<text class="title" x="24" y="36">Role mix</text>
<text x="24" y="74">Engineering &amp; Infra</text>
<rect x="244" y="60" width="220" height="20" fill="#2563eb" rx="4" />
<text x="472" y="74">7510</text>
<text x="24" y="106">Other</text>
<rect x="244" y="92" width="196.88681757656457" height="20" fill="#2563eb" rx="4" />
<text x="448.88681757656457" y="106">6721</text>
<text x="24" y="138">Marketing &amp; Growth</text>
<rect x="244" y="124" width="97.78428761651132" height="20" fill="#2563eb" rx="4" />
<text x="349.78428761651134" y="138">3338</text>
<text x="24" y="170">Product</text>
<rect x="244" y="156" width="64.76964047936086" height="20" fill="#2563eb" rx="4" />
<text x="316.7696404793609" y="170">2211</text>
<text x="24" y="202">Data &amp; AI</text>
<rect x="244" y="188" width="64.59387483355526" height="20" fill="#2563eb" rx="4" />
<text x="316.5938748335553" y="202">2205</text>
<text x="24" y="234">Sales &amp; Success</text>
<rect x="244" y="220" width="54.39946737683089" height="20" fill="#2563eb" rx="4" />
<text x="306.3994673768309" y="234">1857</text>
</svg>
