<svg width="520" height="276" viewBox="0 0 520 276" xmlns="http://www.w3.org/2000/svg" role="img" aria-label="Role mix">
<style>
    text { font-family: "Inter", "Segoe UI", sans-serif; font-size: 12px; fill: #111827; }
    .title { font-size: 14px; font-weight: 600; }
  </style>
<rect width="520" height="276" fill="#ffffff" rx="8" ry="8" stroke="#e5e7eb" />
<text class="title" x="24" y="36">Role mix</text>
<text x="24" y="74">Engineering &amp; Infra</text>
<rect x="244" y="60" width="220" height="20" fill="#2563eb" rx="4" />
<text x="472" y="74">7575</text>
<text x="24" y="106">Other</text>
<rect x="244" y="92" width="196.85280528052806" height="20" fill="#2563eb" rx="4" />
<text x="448.85280528052806" y="106">6778</text>
<text x="24" y="138">Marketing &amp; Growth</text>
<rect x="244" y="124" width="97.90363036303631" height="20" fill="#2563eb" rx="4" />
<text x="349.9036303630363" y="138">3371</text>
<text x="24" y="170">Product</text>
<rect x="244" y="156" width="64.9108910891089" height="20" fill="#2563eb" rx="4" />
<text x="316.9108910891089" y="170">2235</text>
<text x="24" y="202">Data &amp; AI</text>
<rect x="244" y="188" width="64.67854785478548" height="20" fill="#2563eb" rx="4" />
<text x="316.6785478547855" y="202">2227</text>
<text x="24" y="234">Sales &amp; Success</text>
<rect x="244" y="220" width="54.31023102310231" height="20" fill="#2563eb" rx="4" />
<text x="306.3102310231023" y="234">1870</text>
</svg>
