<svg width="520" height="276" viewBox="0 0 520 276" xmlns="http://www.w3.org/2000/svg" role="img" aria-label="Role mix">
<style>
    text { font-family: "Inter", "Segoe UI", sans-serif; font-size: 12px; fill: #111827; }
    .title { font-size: 14px; font-weight: 600; }
  </style>
<rect width="520" height="276" fill="#ffffff" rx="8" ry="8" stroke="#e5e7eb" />
<text class="title" x="24" y="36">Role mix</text>
<text x="24" y="74">Engineering &amp; Infra</text>
<rect x="244" y="60" width="220" height="20" fill="#2563eb" rx="4" />
<text x="472" y="74">7503</text>
<text x="24" y="106">Other</text>
<rect x="244" y="92" width="196.8066106890577" height="20" fill="#2563eb" rx="4" />
<text x="448.8066106890577" y="106">6712</text>
<text x="24" y="138">Marketing &amp; Growth</text>
<rect x="244" y="124" width="97.72890843662535" height="20" fill="#2563eb" rx="4" />
<text x="349.7289084366254" y="138">3333</text>
<text x="24" y="170">Product</text>
<rect x="244" y="156" width="64.77142476342796" height="20" fill="#2563eb" rx="4" />
<text x="316.77142476342794" y="170">2209</text>
<text x="24" y="202">Data &amp; AI</text>
<rect x="244" y="188" width="64.53685192589631" height="20" fill="#2563eb" rx="4" />
<text x="316.5368519258963" y="202">2201</text>
<text x="24" y="234">Sales &amp; Success</text>
<rect x="244" y="220" width="54.36225509796082" height="20" fill="#2563eb" rx="4" />
<text x="306.3622550979608" y="234">1854</text>
</svg>
