<svg width="520" height="276" viewBox="0 0 520 276" xmlns="http://www.w3.org/2000/svg" role="img" aria-label="Role mix">
<style>
    text { font-family: "Inter", "Segoe UI", sans-serif; font-size: 12px; fill: #111827; }
    .title { font-size: 14px; font-weight: 600; }
  </style>
<rect width="520" height="276" fill="#ffffff" rx="8" ry="8" stroke="#e5e7eb" />
<text class="title" x="24" y="36">Role mix</text>
<text x="24" y="74">Engineering &amp; Infra</text>
<rect x="244" y="60" width="220" height="20" fill="#2563eb" rx="4" />
<text x="472" y="74">7508</text>
<text x="24" y="106">Other</text>
<rect x="244" y="92" width="196.90996270644644" height="20" fill="#2563eb" rx="4" />
<text x="448.90996270644644" y="106">6720</text>
<text x="24" y="138">Marketing &amp; Growth</text>
<rect x="244" y="124" width="97.7517314864145" height="20" fill="#2563eb" rx="4" />
<text x="349.7517314864145" y="138">3336</text>
<text x="24" y="170">Product</text>
<rect x="244" y="156" width="64.78689397975492" height="20" fill="#2563eb" rx="4" />
<text x="316.78689397975495" y="170">2211</text>
<text x="24" y="202">Data &amp; AI</text>
<rect x="244" y="188" width="64.58177943526904" height="20" fill="#2563eb" rx="4" />
<text x="316.581779435269" y="202">2204</text>
<text x="24" y="234">Sales &amp; Success</text>
<rect x="244" y="220" width="54.38465636654236" height="20" fill="#2563eb" rx="4" />
<text x="306.38465636654234" y="234">1856</text>
</svg>
