<svg width="520" height="276" viewBox="0 0 520 276" xmlns="http://www.w3.org/2000/svg" role="img" aria-label="Role mix">
<style>
    text { font-family: "Inter", "Segoe UI", sans-serif; font-size: 12px; fill: #111827; }
    .title { font-size: 14px; font-weight: 600; }
  </style>
<rect width="520" height="276" fill="#ffffff" rx="8" ry="8" stroke="#e5e7eb" />
<text class="title" x="24" y="36">Role mix</text>
<text x="24" y="74">Engineering &amp; Infra</text>
<rect x="244" y="60" width="220" height="20" fill="#2563eb" rx="4" />
<text x="472" y="74">8860</text>
<text x="24" y="106">Other</text>
<rect x="244" y="92" width="196.0135440180587" height="20" fill="#2563eb" rx="4" />
<text x="448.0135440180587" y="106">7894</text>
<text x="24" y="138">Marketing &amp; Growth</text>
<rect x="244" y="124" width="99.19864559819413" height="20" fill="#2563eb" rx="4" />
<text x="351.19864559819416" y="138">3995</text>
<text x="24" y="170">Product</text>
<rect x="244" y="156" width="65.05643340857787" height="20" fill="#2563eb" rx="4" />
<text x="317.05643340857785" y="170">2620</text>
<text x="24" y="202">Data &amp; AI</text>
<rect x="244" y="188" width="63.492099322799106" height="20" fill="#2563eb" rx="4" />
<text x="315.4920993227991" y="202">2557</text>
<text x="24" y="234">Sales &amp; Success</text>
<rect x="244" y="220" width="55.79458239277652" height="20" fill="#2563eb" rx="4" />
<text x="307.79458239277653" y="234">2247</text>
</svg>
