<svg width="520" height="276" viewBox="0 0 520 276" xmlns="http://www.w3.org/2000/svg" role="img" aria-label="Role mix">
<style>
    text { font-family: "Inter", "Segoe UI", sans-serif; font-size: 12px; fill: #111827; }
    .title { font-size: 14px; font-weight: 600; }
  </style>
<rect width="520" height="276" fill="#ffffff" rx="8" ry="8" stroke="#e5e7eb" />
<text class="title" x="24" y="36">Role mix</text>
<text x="24" y="74">Engineering &amp; Infra</text>
<rect x="244" y="60" width="220" height="20" fill="#2563eb" rx="4" />
<text x="472" y="74">7165</text>
<text x="24" y="106">Other</text>
<rect x="244" y="92" width="192.82623866015354" height="20" fill="#2563eb" rx="4" />
<text x="444.82623866015354" y="106">6280</text>
<text x="24" y="138">Marketing &amp; Growth</text>
<rect x="244" y="124" width="96.65875785066294" height="20" fill="#2563eb" rx="4" />
<text x="348.65875785066294" y="138">3148</text>
<text x="24" y="170">Product</text>
<rect x="244" y="156" width="63.06769016050245" height="20" fill="#2563eb" rx="4" />
<text x="315.0676901605025" y="170">2054</text>
<text x="24" y="202">Data &amp; AI</text>
<rect x="244" y="188" width="62.8834612700628" height="20" fill="#2563eb" rx="4" />
<text x="314.8834612700628" y="202">2048</text>
<text x="24" y="234">Sales &amp; Success</text>
<rect x="244" y="220" width="53.426378227494766" height="20" fill="#2563eb" rx="4" />
<text x="305.42637822749475" y="234">1740</text>
</svg>
