<svg width="520" height="276" viewBox="0 0 520 276" xmlns="http://www.w3.org/2000/svg" role="img" aria-label="Role mix">
<style>
    text { font-family: "Inter", "Segoe UI", sans-serif; font-size: 12px; fill: #111827; }
    .title { font-size: 14px; font-weight: 600; }
  </style>
<rect width="520" height="276" fill="#ffffff" rx="8" ry="8" stroke="#e5e7eb" />
<text class="title" x="24" y="36">Role mix</text>
<text x="24" y="74">Engineering &amp; Infra</text>
<rect x="244" y="60" width="220" height="20" fill="#2563eb" rx="4" />
<text x="472" y="74">7170</text>
<text x="24" y="106">Other</text>
<rect x="244" y="92" width="192.7531380753138" height="20" fill="#2563eb" rx="4" />
<text x="444.7531380753138" y="106">6282</text>
<text x="24" y="138">Marketing &amp; Growth</text>
<rect x="244" y="124" width="96.65271966527196" height="20" fill="#2563eb" rx="4" />
<text x="348.65271966527195" y="138">3150</text>
<text x="24" y="170">Product</text>
<rect x="244" y="156" width="63.05439330543933" height="20" fill="#2563eb" rx="4" />
<text x="315.05439330543936" y="170">2055</text>
<text x="24" y="202">Data &amp; AI</text>
<rect x="244" y="188" width="62.83960948396095" height="20" fill="#2563eb" rx="4" />
<text x="314.83960948396094" y="202">2048</text>
<text x="24" y="234">Sales &amp; Success</text>
<rect x="244" y="220" width="53.450488145048816" height="20" fill="#2563eb" rx="4" />
<text x="305.45048814504884" y="234">1742</text>
</svg>
