<svg width="520" height="276" viewBox="0 0 520 276" xmlns="http://www.w3.org/2000/svg" role="img" aria-label="Role mix">
<style>
    text { font-family: "Inter", "Segoe UI", sans-serif; font-size: 12px; fill: #111827; }
    .title { font-size: 14px; font-weight: 600; }
  </style>
<rect width="520" height="276" fill="#ffffff" rx="8" ry="8" stroke="#e5e7eb" />
<text class="title" x="24" y="36">Role mix</text>
<text x="24" y="74">Engineering &amp; Infra</text>
<rect x="244" y="60" width="220" height="20" fill="#2563eb" rx="4" />
<text x="472" y="74">7591</text>
<text x="24" y="106">Other</text>
<rect x="244" y="92" width="197.2493742589909" height="20" fill="#2563eb" rx="4" />
<text x="449.2493742589909" y="106">6806</text>
<text x="24" y="138">Marketing &amp; Growth</text>
<rect x="244" y="124" width="98.07403504149651" height="20" fill="#2563eb" rx="4" />
<text x="350.07403504149653" y="138">3384</text>
<text x="24" y="170">Product</text>
<rect x="244" y="156" width="64.97694638387564" height="20" fill="#2563eb" rx="4" />
<text x="316.97694638387566" y="170">2242</text>
<text x="24" y="202">Data &amp; AI</text>
<rect x="244" y="188" width="64.74509287313924" height="20" fill="#2563eb" rx="4" />
<text x="316.74509287313924" y="202">2234</text>
<text x="24" y="234">Sales &amp; Success</text>
<rect x="244" y="220" width="54.282703201159265" height="20" fill="#2563eb" rx="4" />
<text x="306.2827032011593" y="234">1873</text>
</svg>
