<svg width="520" height="276" viewBox="0 0 520 276" xmlns="http://www.w3.org/2000/svg" role="img" aria-label="Role mix">
<style>
    text { font-family: "Inter", "Segoe UI", sans-serif; font-size: 12px; fill: #111827; }
    .title { font-size: 14px; font-weight: 600; }
  </style>
<rect width="520" height="276" fill="#ffffff" rx="8" ry="8" stroke="#e5e7eb" />
<text class="title" x="24" y="36">Role mix</text>
<text x="24" y="74">Engineering &amp; Infra</text>
<rect x="244" y="60" width="220" height="20" fill="#2563eb" rx="4" />
<text x="472" y="74">7332</text>
<text x="24" y="106">Other</text>
<rect x="244" y="92" width="195.78559738134206" height="20" fill="#2563eb" rx="4" />
<text x="447.7855973813421" y="106">6525</text>
<text x="24" y="138">Marketing &amp; Growth</text>
<rect x="244" y="124" width="97.69776322967813" height="20" fill="#2563eb" rx="4" />
<text x="349.6977632296781" y="138">3256</text>
<text x="24" y="170">Product</text>
<rect x="244" y="156" width="64.66175668303329" height="20" fill="#2563eb" rx="4" />
<text x="316.6617566830333" y="170">2155</text>
<text x="24" y="202">Data &amp; AI</text>
<rect x="244" y="188" width="63.73158756137479" height="20" fill="#2563eb" rx="4" />
<text x="315.7315875613748" y="202">2124</text>
<text x="24" y="234">Sales &amp; Success</text>
<rect x="244" y="220" width="54.219858156028366" height="20" fill="#2563eb" rx="4" />
<text x="306.21985815602835" y="234">1807</text>
</svg>
