<svg width="520" height="276" viewBox="0 0 520 276" xmlns="http://www.w3.org/2000/svg" role="img" aria-label="Role mix">
<style>
    text { font-family: "Inter", "Segoe UI", sans-serif; font-size: 12px; fill: #111827; }
    .title { font-size: 14px; font-weight: 600; }
  </style>
<rect width="520" height="276" fill="#ffffff" rx="8" ry="8" stroke="#e5e7eb" />
<text class="title" x="24" y="36">Role mix</text>
<text x="24" y="74">Engineering &amp; Infra</text>
<rect x="244" y="60" width="220" height="20" fill="#2563eb" rx="4" />
<text x="472" y="74">7249</text>
<text x="24" y="106">Other</text>
<rect x="244" y="92" width="194.53717754172987" height="20" fill="#2563eb" rx="4" />
<text x="446.5371775417299" y="106">6410</text>
<text x="24" y="138">Marketing &amp; Growth</text>
<rect x="244" y="124" width="97.48103186646433" height="20" fill="#2563eb" rx="4" />
<text x="349.4810318664643" y="138">3212</text>
<text x="24" y="170">Product</text>
<rect x="244" y="156" width="64.33990895295904" height="20" fill="#2563eb" rx="4" />
<text x="316.33990895295904" y="170">2120</text>
<text x="24" y="202">Data &amp; AI</text>
<rect x="244" y="188" width="63.125948406676784" height="20" fill="#2563eb" rx="4" />
<text x="315.1259484066768" y="202">2080</text>
<text x="24" y="234">Sales &amp; Success</text>
<rect x="244" y="220" width="54.02124430955994" height="20" fill="#2563eb" rx="4" />
<text x="306.02124430955996" y="234">1780</text>
</svg>
