<svg width="520" height="276" viewBox="0 0 520 276" xmlns="http://www.w3.org/2000/svg" role="img" aria-label="Role mix">
<style>
    text { font-family: "Inter", "Segoe UI", sans-serif; font-size: 12px; fill: #111827; }
    .title { font-size: 14px; font-weight: 600; }
  </style>
<rect width="520" height="276" fill="#ffffff" rx="8" ry="8" stroke="#e5e7eb" />
<text class="title" x="24" y="36">Role mix</text>
<text x="24" y="74">Engineering &amp; Infra</text>
<rect x="244" y="60" width="220" height="20" fill="#2563eb" rx="4" />
<text x="472" y="74">7206</text>
<text x="24" y="106">Other</text>
<rect x="244" y="92" width="192.5534276991396" height="20" fill="#2563eb" rx="4" />
<text x="444.5534276991396" y="106">6307</text>
<text x="24" y="138">Marketing &amp; Growth</text>
<rect x="244" y="124" width="96.84152095475993" height="20" fill="#2563eb" rx="4" />
<text x="348.8415209547599" y="138">3172</text>
<text x="24" y="170">Product</text>
<rect x="244" y="156" width="63.075215098529" height="20" fill="#2563eb" rx="4" />
<text x="315.075215098529" y="170">2066</text>
<text x="24" y="202">Data &amp; AI</text>
<rect x="244" y="188" width="62.80044407438246" height="20" fill="#2563eb" rx="4" />
<text x="314.8004440743825" y="202">2057</text>
<text x="24" y="234">Sales &amp; Success</text>
<rect x="244" y="220" width="53.61087982237025" height="20" fill="#2563eb" rx="4" />
<text x="305.61087982237024" y="234">1756</text>
</svg>
