<svg width="520" height="276" viewBox="0 0 520 276" xmlns="http://www.w3.org/2000/svg" role="img" aria-label="Role mix">
<style>
    text { font-family: "Inter", "Segoe UI", sans-serif; font-size: 12px; fill: #111827; }
    .title { font-size: 14px; font-weight: 600; }
  </style>
<rect width="520" height="276" fill="#ffffff" rx="8" ry="8" stroke="#e5e7eb" />
<text class="title" x="24" y="36">Role mix</text>
<text x="24" y="74">Engineering &amp; Infra</text>
<rect x="244" y="60" width="220" height="20" fill="#2563eb" rx="4" />
<text x="472" y="74">7511</text>
<text x="24" y="106">Other</text>
<rect x="244" y="92" width="196.8898948209293" height="20" fill="#2563eb" rx="4" />
<text x="448.88989482092927" y="106">6722</text>
<text x="24" y="138">Marketing &amp; Growth</text>
<rect x="244" y="124" width="97.77126880575156" height="20" fill="#2563eb" rx="4" />
<text x="349.77126880575156" y="138">3338</text>
<text x="24" y="170">Product</text>
<rect x="244" y="156" width="64.79030754892824" height="20" fill="#2563eb" rx="4" />
<text x="316.79030754892824" y="170">2212</text>
<text x="24" y="202">Data &amp; AI</text>
<rect x="244" y="188" width="64.58527493010251" height="20" fill="#2563eb" rx="4" />
<text x="316.5852749301025" y="202">2205</text>
<text x="24" y="234">Sales &amp; Success</text>
<rect x="244" y="220" width="54.45080548528824" height="20" fill="#2563eb" rx="4" />
<text x="306.45080548528824" y="234">1859</text>
</svg>
