<svg width="520" height="276" viewBox="0 0 520 276" xmlns="http://www.w3.org/2000/svg" role="img" aria-label="Role mix">
<style>
    text { font-family: "Inter", "Segoe UI", sans-serif; font-size: 12px; fill: #111827; }
    .title { font-size: 14px; font-weight: 600; }
  </style>
<rect width="520" height="276" fill="#ffffff" rx="8" ry="8" stroke="#e5e7eb" />
<text class="title" x="24" y="36">Role mix</text>
<text x="24" y="74">Engineering &amp; Infra</text>
<rect x="244" y="60" width="220" height="20" fill="#2563eb" rx="4" />
<text x="472" y="74">7628</text>
<text x="24" y="106">Other</text>
<rect x="244" y="92" width="197.5904562139486" height="20" fill="#2563eb" rx="4" />
<text x="449.59045621394864" y="106">6851</text>
<text x="24" y="138">Marketing &amp; Growth</text>
<rect x="244" y="124" width="98.57891976927111" height="20" fill="#2563eb" rx="4" />
<text x="350.5789197692711" y="138">3418</text>
<text x="24" y="170">Product</text>
<rect x="244" y="156" width="65.1232302045097" height="20" fill="#2563eb" rx="4" />
<text x="317.1232302045097" y="170">2258</text>
<text x="24" y="202">Data &amp; AI</text>
<rect x="244" y="188" width="64.77713686418458" height="20" fill="#2563eb" rx="4" />
<text x="316.77713686418457" y="202">2246</text>
<text x="24" y="234">Sales &amp; Success</text>
<rect x="244" y="220" width="54.50970110120608" height="20" fill="#2563eb" rx="4" />
<text x="306.5097011012061" y="234">1890</text>
</svg>
