<svg width="520" height="276" viewBox="0 0 520 276" xmlns="http://www.w3.org/2000/svg" role="img" aria-label="Role mix">
<style>
    text { font-family: "Inter", "Segoe UI", sans-serif; font-size: 12px; fill: #111827; }
    .title { font-size: 14px; font-weight: 600; }
  </style>
<rect width="520" height="276" fill="#ffffff" rx="8" ry="8" stroke="#e5e7eb" />
<text class="title" x="24" y="36">Role mix</text>
<text x="24" y="74">Engineering &amp; Infra</text>
<rect x="244" y="60" width="220" height="20" fill="#2563eb" rx="4" />
<text x="472" y="74">8315</text>
<text x="24" y="106">Other</text>
<rect x="244" y="92" width="196.42573662056523" height="20" fill="#2563eb" rx="4" />
<text x="448.4257366205652" y="106">7424</text>
<text x="24" y="138">Marketing &amp; Growth</text>
<rect x="244" y="124" width="99.32411304870716" height="20" fill="#2563eb" rx="4" />
<text x="351.32411304870715" y="138">3754</text>
<text x="24" y="170">Product</text>
<rect x="244" y="156" width="65.82802164762477" height="20" fill="#2563eb" rx="4" />
<text x="317.8280216476248" y="170">2488</text>
<text x="24" y="202">Data &amp; AI</text>
<rect x="244" y="188" width="64.02886349969934" height="20" fill="#2563eb" rx="4" />
<text x="316.02886349969936" y="202">2420</text>
<text x="24" y="234">Sales &amp; Success</text>
<rect x="244" y="220" width="56.19723391461215" height="20" fill="#2563eb" rx="4" />
<text x="308.1972339146121" y="234">2124</text>
</svg>
