<svg width="520" height="276" viewBox="0 0 520 276" xmlns="http://www.w3.org/2000/svg" role="img" aria-label="Role mix">
<style>
    text { font-family: "Inter", "Segoe UI", sans-serif; font-size: 12px; fill: #111827; }
    .title { font-size: 14px; font-weight: 600; }
  </style>
<rect width="520" height="276" fill="#ffffff" rx="8" ry="8" stroke="#e5e7eb" />
<text class="title" x="24" y="36">Role mix</text>
<text x="24" y="74">Engineering &amp; Infra</text>
<rect x="244" y="60" width="220" height="20" fill="#2563eb" rx="4" />
<text x="472" y="74">7417</text>
<text x="24" y="106">Other</text>
<rect x="244" y="92" width="196.44869893487933" height="20" fill="#2563eb" rx="4" />
<text x="448.4486989348793" y="106">6623</text>
<text x="24" y="138">Marketing &amp; Growth</text>
<rect x="244" y="124" width="97.82391802615612" height="20" fill="#2563eb" rx="4" />
<text x="349.8239180261561" y="138">3298</text>
<text x="24" y="170">Product</text>
<rect x="244" y="156" width="64.86989348793313" height="20" fill="#2563eb" rx="4" />
<text x="316.86989348793315" y="170">2187</text>
<text x="24" y="202">Data &amp; AI</text>
<rect x="244" y="188" width="63.98004584063637" height="20" fill="#2563eb" rx="4" />
<text x="315.98004584063636" y="202">2157</text>
<text x="24" y="234">Sales &amp; Success</text>
<rect x="244" y="220" width="54.221383308615344" height="20" fill="#2563eb" rx="4" />
<text x="306.2213833086154" y="234">1828</text>
</svg>
