<svg width="520" height="276" viewBox="0 0 520 276" xmlns="http://www.w3.org/2000/svg" role="img" aria-label="Role mix">
<style>
    text { font-family: "Inter", "Segoe UI", sans-serif; font-size: 12px; fill: #111827; }
    .title { font-size: 14px; font-weight: 600; }
  </style>
<rect width="520" height="276" fill="#ffffff" rx="8" ry="8" stroke="#e5e7eb" />
<text class="title" x="24" y="36">Role mix</text>
<text x="24" y="74">Engineering &amp; Infra</text>
<rect x="244" y="60" width="220" height="20" fill="#2563eb" rx="4" />
<text x="472" y="74">7478</text>
<text x="24" y="106">Other</text>
<rect x="244" y="92" width="196.78791120620488" height="20" fill="#2563eb" rx="4" />
<text x="448.78791120620485" y="106">6689</text>
<text x="24" y="138">Marketing &amp; Growth</text>
<rect x="244" y="124" width="97.90853169296604" height="20" fill="#2563eb" rx="4" />
<text x="349.90853169296605" y="138">3328</text>
<text x="24" y="170">Product</text>
<rect x="244" y="156" width="64.87028617277348" height="20" fill="#2563eb" rx="4" />
<text x="316.8702861727735" y="170">2205</text>
<text x="24" y="202">Data &amp; AI</text>
<rect x="244" y="188" width="64.60550949451725" height="20" fill="#2563eb" rx="4" />
<text x="316.60550949451726" y="202">2196</text>
<text x="24" y="234">Sales &amp; Success</text>
<rect x="244" y="220" width="54.48515645894624" height="20" fill="#2563eb" rx="4" />
<text x="306.4851564589462" y="234">1852</text>
</svg>
