<svg width="520" height="276" viewBox="0 0 520 276" xmlns="http://www.w3.org/2000/svg" role="img" aria-label="Role mix">
<style>
    text { font-family: "Inter", "Segoe UI", sans-serif; font-size: 12px; fill: #111827; }
    .title { font-size: 14px; font-weight: 600; }
  </style>
<rect width="520" height="276" fill="#ffffff" rx="8" ry="8" stroke="#e5e7eb" />
<text class="title" x="24" y="36">Role mix</text>
<text x="24" y="74">Engineering &amp; Infra</text>
<rect x="244" y="60" width="220" height="20" fill="#2563eb" rx="4" />
<text x="472" y="74">7127</text>
<text x="24" y="106">Other</text>
<rect x="244" y="92" width="192.83569524344043" height="20" fill="#2563eb" rx="4" />
<text x="444.83569524344045" y="106">6247</text>
<text x="24" y="138">Marketing &amp; Growth</text>
<rect x="244" y="124" width="96.5258874701838" height="20" fill="#2563eb" rx="4" />
<text x="348.5258874701838" y="138">3127</text>
<text x="24" y="170">Product</text>
<rect x="244" y="156" width="63.09527150273607" height="20" fill="#2563eb" rx="4" />
<text x="315.09527150273607" y="170">2044</text>
<text x="24" y="202">Data &amp; AI</text>
<rect x="244" y="188" width="62.91006033394135" height="20" fill="#2563eb" rx="4" />
<text x="314.9100603339414" y="202">2038</text>
<text x="24" y="234">Sales &amp; Success</text>
<rect x="244" y="220" width="53.433422197277956" height="20" fill="#2563eb" rx="4" />
<text x="305.43342219727793" y="234">1731</text>
</svg>
