<svg width="520" height="276" viewBox="0 0 520 276" xmlns="http://www.w3.org/2000/svg" role="img" aria-label="Role mix">
<style>
    text { font-family: "Inter", "Segoe UI", sans-serif; font-size: 12px; fill: #111827; }
    .title { font-size: 14px; font-weight: 600; }
  </style>
<rect width="520" height="276" fill="#ffffff" rx="8" ry="8" stroke="#e5e7eb" />
<text class="title" x="24" y="36">Role mix</text>
<text x="24" y="74">Engineering &amp; Infra</text>
<rect x="244" y="60" width="220" height="20" fill="#2563eb" rx="4" />
<text x="472" y="74">7204</text>
<text x="24" y="106">Other</text>
<rect x="244" y="92" width="192.6068850638534" height="20" fill="#2563eb" rx="4" />
<text x="444.6068850638534" y="106">6307</text>
<text x="24" y="138">Marketing &amp; Growth</text>
<rect x="244" y="124" width="96.86840644086618" height="20" fill="#2563eb" rx="4" />
<text x="348.8684064408662" y="138">3172</text>
<text x="24" y="170">Product</text>
<rect x="244" y="156" width="63.092726263187124" height="20" fill="#2563eb" rx="4" />
<text x="315.0927262631871" y="170">2066</text>
<text x="24" y="202">Data &amp; AI</text>
<rect x="244" y="188" width="62.787340366463084" height="20" fill="#2563eb" rx="4" />
<text x="314.78734036646307" y="202">2056</text>
<text x="24" y="234">Sales &amp; Success</text>
<rect x="244" y="220" width="53.62576346474181" height="20" fill="#2563eb" rx="4" />
<text x="305.6257634647418" y="234">1756</text>
</svg>
