<svg width="520" height="276" viewBox="0 0 520 276" xmlns="http://www.w3.org/2000/svg" role="img" aria-label="Role mix">
<style>
    text { font-family: "Inter", "Segoe UI", sans-serif; font-size: 12px; fill: #111827; }
    .title { font-size: 14px; font-weight: 600; }
  </style>
<rect width="520" height="276" fill="#ffffff" rx="8" ry="8" stroke="#e5e7eb" />
<text class="title" x="24" y="36">Role mix</text>
<text x="24" y="74">Engineering &amp; Infra</text>
<rect x="244" y="60" width="220" height="20" fill="#2563eb" rx="4" />
<text x="472" y="74">7329</text>
<text x="24" y="106">Other</text>
<rect x="244" y="92" width="195.74566789466502" height="20" fill="#2563eb" rx="4" />
<text x="447.745667894665" y="106">6521</text>
<text x="24" y="138">Marketing &amp; Growth</text>
<rect x="244" y="124" width="97.67771865193069" height="20" fill="#2563eb" rx="4" />
<text x="349.6777186519307" y="138">3254</text>
<text x="24" y="170">Product</text>
<rect x="244" y="156" width="64.59817164688225" height="20" fill="#2563eb" rx="4" />
<text x="316.59817164688224" y="170">2152</text>
<text x="24" y="202">Data &amp; AI</text>
<rect x="244" y="188" width="63.75767498976668" height="20" fill="#2563eb" rx="4" />
<text x="315.75767498976666" y="202">2124</text>
<text x="24" y="234">Sales &amp; Success</text>
<rect x="244" y="220" width="54.212034383954155" height="20" fill="#2563eb" rx="4" />
<text x="306.2120343839542" y="234">1806</text>
</svg>
