<svg width="520" height="276" viewBox="0 0 520 276" xmlns="http://www.w3.org/2000/svg" role="img" aria-label="Role mix">
<style>
    text { font-family: "Inter", "Segoe UI", sans-serif; font-size: 12px; fill: #111827; }
    .title { font-size: 14px; font-weight: 600; }
  </style>
<rect width="520" height="276" fill="#ffffff" rx="8" ry="8" stroke="#e5e7eb" />
<text class="title" x="24" y="36">Role mix</text>
<text x="24" y="74">Engineering &amp; Infra</text>
<rect x="244" y="60" width="220" height="20" fill="#2563eb" rx="4" />
<text x="472" y="74">7219</text>
<text x="24" y="106">Other</text>
<rect x="244" y="92" width="193.48663249757584" height="20" fill="#2563eb" rx="4" />
<text x="445.48663249757584" y="106">6349</text>
<text x="24" y="138">Marketing &amp; Growth</text>
<rect x="244" y="124" width="97.1547305721014" height="20" fill="#2563eb" rx="4" />
<text x="349.1547305721014" y="138">3188</text>
<text x="24" y="170">Product</text>
<rect x="244" y="156" width="63.72350741099876" height="20" fill="#2563eb" rx="4" />
<text x="315.72350741099876" y="170">2091</text>
<text x="24" y="202">Data &amp; AI</text>
<rect x="244" y="188" width="63.02257930461283" height="20" fill="#2563eb" rx="4" />
<text x="315.0225793046128" y="202">2068</text>
<text x="24" y="234">Sales &amp; Success</text>
<rect x="244" y="220" width="53.88003878653553" height="20" fill="#2563eb" rx="4" />
<text x="305.8800387865355" y="234">1768</text>
</svg>
