<svg width="520" height="276" viewBox="0 0 520 276" xmlns="http://www.w3.org/2000/svg" role="img" aria-label="Role mix">
<style>
    text { font-family: "Inter", "Segoe UI", sans-serif; font-size: 12px; fill: #111827; }
    .title { font-size: 14px; font-weight: 600; }
  </style>
<rect width="520" height="276" fill="#ffffff" rx="8" ry="8" stroke="#e5e7eb" />
<text class="title" x="24" y="36">Role mix</text>
<text x="24" y="74">Engineering &amp; Infra</text>
<rect x="244" y="60" width="220" height="20" fill="#2563eb" rx="4" />
<text x="472" y="74">8409</text>
<text x="24" y="106">Other</text>
<rect x="244" y="92" width="195.66892615055298" height="20" fill="#2563eb" rx="4" />
<text x="447.668926150553" y="106">7479</text>
<text x="24" y="138">Marketing &amp; Growth</text>
<rect x="244" y="124" width="99.18182899274586" height="20" fill="#2563eb" rx="4" />
<text x="351.18182899274586" y="138">3791</text>
<text x="24" y="170">Product</text>
<rect x="244" y="156" width="65.61541205850874" height="20" fill="#2563eb" rx="4" />
<text x="317.61541205850875" y="170">2508</text>
<text x="24" y="202">Data &amp; AI</text>
<rect x="244" y="188" width="63.75787846355095" height="20" fill="#2563eb" rx="4" />
<text x="315.7578784635509" y="202">2437</text>
<text x="24" y="234">Sales &amp; Success</text>
<rect x="244" y="220" width="56.06611963372577" height="20" fill="#2563eb" rx="4" />
<text x="308.06611963372575" y="234">2143</text>
</svg>
