<svg width="520" height="276" viewBox="0 0 520 276" xmlns="http://www.w3.org/2000/svg" role="img" aria-label="Role mix">
<style>
    text { font-family: "Inter", "Segoe UI", sans-serif; font-size: 12px; fill: #111827; }
    .title { font-size: 14px; font-weight: 600; }
  </style>
<rect width="520" height="276" fill="#ffffff" rx="8" ry="8" stroke="#e5e7eb" />
<text class="title" x="24" y="36">Role mix</text>
<text x="24" y="74">Engineering &amp; Infra</text>
<rect x="244" y="60" width="220" height="20" fill="#2563eb" rx="4" />
<text x="472" y="74">7162</text>
<text x="24" y="106">Other</text>
<rect x="244" y="92" width="192.6919854789165" height="20" fill="#2563eb" rx="4" />
<text x="444.69198547891654" y="106">6273</text>
<text x="24" y="138">Marketing &amp; Growth</text>
<rect x="244" y="124" width="96.6070929907847" height="20" fill="#2563eb" rx="4" />
<text x="348.6070929907847" y="138">3145</text>
<text x="24" y="170">Product</text>
<rect x="244" y="156" width="63.00195476123988" height="20" fill="#2563eb" rx="4" />
<text x="315.00195476123986" y="170">2051</text>
<text x="24" y="202">Data &amp; AI</text>
<rect x="244" y="188" width="62.848366378106675" height="20" fill="#2563eb" rx="4" />
<text x="314.8483663781067" y="202">2046</text>
<text x="24" y="234">Sales &amp; Success</text>
<rect x="244" y="220" width="53.387321977101365" height="20" fill="#2563eb" rx="4" />
<text x="305.38732197710135" y="234">1738</text>
</svg>
