<svg width="520" height="276" viewBox="0 0 520 276" xmlns="http://www.w3.org/2000/svg" role="img" aria-label="Role mix">
<style>
    text { font-family: "Inter", "Segoe UI", sans-serif; font-size: 12px; fill: #111827; }
    .title { font-size: 14px; font-weight: 600; }
  </style>
<rect width="520" height="276" fill="#ffffff" rx="8" ry="8" stroke="#e5e7eb" />
<text class="title" x="24" y="36">Role mix</text>
<text x="24" y="74">Engineering &amp; Infra</text>
<rect x="244" y="60" width="220" height="20" fill="#2563eb" rx="4" />
<text x="472" y="74">7323</text>
<text x="24" y="106">Other</text>
<rect x="244" y="92" width="195.57558377714054" height="20" fill="#2563eb" rx="4" />
<text x="447.57558377714054" y="106">6510</text>
<text x="24" y="138">Marketing &amp; Growth</text>
<rect x="244" y="124" width="97.66762255906049" height="20" fill="#2563eb" rx="4" />
<text x="349.6676225590605" y="138">3251</text>
<text x="24" y="170">Product</text>
<rect x="244" y="156" width="64.59101461149803" height="20" fill="#2563eb" rx="4" />
<text x="316.59101461149805" y="170">2150</text>
<text x="24" y="202">Data &amp; AI</text>
<rect x="244" y="188" width="63.77987163730712" height="20" fill="#2563eb" rx="4" />
<text x="315.7798716373071" y="202">2123</text>
<text x="24" y="234">Sales &amp; Success</text>
<rect x="244" y="220" width="54.16632527652602" height="20" fill="#2563eb" rx="4" />
<text x="306.16632527652604" y="234">1803</text>
</svg>
