<svg width="520" height="276" viewBox="0 0 520 276" xmlns="http://www.w3.org/2000/svg" role="img" aria-label="Role mix">
<style>
    text { font-family: "Inter", "Segoe UI", sans-serif; font-size: 12px; fill: #111827; }
    .title { font-size: 14px; font-weight: 600; }
  </style>
<rect width="520" height="276" fill="#ffffff" rx="8" ry="8" stroke="#e5e7eb" />
<text class="title" x="24" y="36">Role mix</text>
<text x="24" y="74">Engineering &amp; Infra</text>
<rect x="244" y="60" width="220" height="20" fill="#2563eb" rx="4" />
<text x="472" y="74">7245</text>
<text x="24" y="106">Other</text>
<rect x="244" y="92" width="194.18909592822638" height="20" fill="#2563eb" rx="4" />
<text x="446.1890959282264" y="106">6395</text>
<text x="24" y="138">Marketing &amp; Growth</text>
<rect x="244" y="124" width="97.44375431331953" height="20" fill="#2563eb" rx="4" />
<text x="349.4437543133195" y="138">3209</text>
<text x="24" y="170">Product</text>
<rect x="244" y="156" width="64.07177363699103" height="20" fill="#2563eb" rx="4" />
<text x="316.071773636991" y="170">2110</text>
<text x="24" y="202">Data &amp; AI</text>
<rect x="244" y="188" width="63.130434782608695" height="20" fill="#2563eb" rx="4" />
<text x="315.1304347826087" y="202">2079</text>
<text x="24" y="234">Sales &amp; Success</text>
<rect x="244" y="220" width="53.959972394755006" height="20" fill="#2563eb" rx="4" />
<text x="305.959972394755" y="234">1777</text>
</svg>
